<?xml version="1.0" encoding="UTF-8"?><svg id="Layer_1" xmlns="http://www.w3.org/2000/svg" viewBox="0 0 521.8 521.8"><defs><style>.cls-1{fill:#fff;}</style></defs><path class="cls-1" d="M262.66,36.22c-125.05,0-226.43,101.38-226.43,226.43s101.37,226.43,226.43,226.43,226.43-101.38,226.43-226.43S387.71,36.22,262.66,36.22Zm63,255.65h-47.94v125.94h-57.91v-125.94h-48.06v-51.05h48.06v-18.65c0-69,28.78-105.25,89.77-105.25,18.68,0,23.37,2.98,33.64,5.44v50.52c-11.5-2.05-14.72-3.08-26.63-3.08-14.17,0-21.67,3.96-28.55,11.86-6.88,7.91-10.32,21.62-10.32,41.13v18.04h65.55l-17.61,51.05Z"/></svg>