<?xml version="1.0" encoding="UTF-8"?><svg id="Layer_1" xmlns="http://www.w3.org/2000/svg" viewBox="0 0 521.8 521.8"><defs><style>.cls-1{fill:#fff;}</style></defs><path class="cls-1" d="M358.81,185c-2.8-6.19-5.53-9.11-9.49-12.7-1.01-.92-1.64-1.82-2.79-2.8-.9-.76-2.19-1.59-3.31-2.31-2.37-1.51-4.79-2.64-7.5-3.72-15.26-6.08-44.88-5.08-61.71-5.09-20.21-.01-54.31-.58-71.46,1.18-5.92,.61-11.58,1.74-16.74,3.71-3.3,1.26-7.37,3.17-10.02,5.28-5.01,3.99-8.57,7.45-11.96,13.28-8.22,14.18-7.88,38.1-7.82,54.7,.08,22.28-.39,48.58,.4,70.57,.74,20.66,2.65,37.78,20.23,50.32,9.62,6.86,24.18,8.57,38.16,9.07,25.88,.93,51.31,.46,77.07,.46,10.95,0,27.06-.34,37.12-2.95,8.13-2.11,14.02-4.98,19.85-10.23,9.58-8.62,13.83-19.79,15.18-34.77,1.51-16.84,1.1-51.55,1.04-72.54-.06-18.32,1.26-44.86-6.24-61.46Zm-54.18,125.92l-4.35,3.8c-9.48,7.43-22.9,12.42-35.75,13.21-21.51,1.34-43.56-8.53-56.11-25.67-7.71-10.53-12.39-21.4-13.24-35.66-.95-15.96,4.02-31.72,13.49-43.84,2.96-3.78,4.4-5.14,7.89-8.43,10.63-9.99,25.16-15.95,40.42-16.87,17.07-1.03,30.61,4.17,43.46,13.45l4.51,3.66c1.36,1.45,2.46,2.91,3.84,4.33,3.26,3.36,4.57,4.7,7.23,9.09,5.55,9.14,9.21,19.1,9.9,30.85,1.19,20.31-7.02,39.27-21.27,52.09Zm25.9-101.02c-9.16,1.17-16.1-5.42-17.11-13.25-.69-5.33,1.15-8.38,3.43-11.62,1.73-2.46,5.49-4.84,9.98-5.42,9-1.17,15.92,5.56,16.93,13.26,1.21,9.2-5.35,16.02-13.23,17.03Z"/><path class="cls-1" d="M260.57,36.22c-125.05,0-226.43,101.38-226.43,226.43s101.38,226.43,226.43,226.43,226.43-101.38,226.43-226.43S385.63,36.22,260.57,36.22Zm127.44,256.61c-.36,29.91-.71,53.48-20.46,75.04-1.19,1.31-2.78,2.67-4.23,3.92-19.65,16.86-42.36,17.6-69.15,18.16-10.56,.22-21.3-.02-31.9,.03-10.61,.05-21.29,.05-31.9-.08-20.29-.25-38.86-.32-56.11-7.69-23.39-9.98-36.42-31.51-39.57-56.04-2.62-20.39-1.76-72.13-1.54-93.47,.2-20.06,.24-39.05,7.62-56.06,1.61-3.73,3.53-7.46,5.72-10.34,3.11-4.09,1.98-2.86,5.27-6.7,.65-.76,1.1-1.33,1.77-2.07,1.98-2.19,4.13-3.95,6.47-5.77,19.85-15.36,40.73-15.67,67.11-16.21,20.85-.43,42.36-.34,63.23-.06,18.96,.26,40.47,.41,56.29,7.65,11.6,5.31,18.95,11.5,26.67,21.27,6.91,8.74,11.44,23.18,12.99,34.66,2.71,20.1,1.97,72.83,1.72,93.76Z"/><path class="cls-1" d="M289.4,231.61c-8.63-7.44-18.86-12.12-30.96-11.25-33.18,2.37-48.9,36.24-35.9,61.43,7.74,15,23.25,24.25,40.51,23.26,14.55-.84,25.57-8.11,33.29-19.49,4.62-6.8,7.21-16.64,6.64-25.23-.72-10.82-5.88-22.09-13.58-28.72Z"/></svg>