<?xml version="1.0" encoding="UTF-8"?><svg id="Layer_1" xmlns="http://www.w3.org/2000/svg" viewBox="0 0 521.8 521.8"><defs><style>.cls-1{fill:#fff;}</style></defs><path class="cls-1" d="M261.93,36.22c-125.05,0-226.43,101.38-226.43,226.43s101.38,226.43,226.43,226.43,226.43-101.38,226.43-226.43S386.99,36.22,261.93,36.22Zm-75.26,347.6h-52.96V214.97h52.96v168.84Zm-26.48-190.72c-16.95,0-30.7-13.74-30.7-30.7s13.74-30.7,30.7-30.7,30.7,13.74,30.7,30.7-13.74,30.7-30.7,30.7Zm222.57,191.87h-52.96v-98.43c0-2.52-.69-28.97-29.93-28.97-9.92,0-18.7,4.4-23.56,13.2-5.74,10.4-4.84,22.64-4.84,34.1v79.33h-52.96V215.35h50.65v22.59s.76-1.29,2.3-3.31c5.78-7.51,22.55-25.1,52.19-23.89,2.09,.08,4.14,.24,6.14,.46,33.8,3.65,52.96,25.94,52.96,63.62v110.13Z"/></svg>