<?xml version="1.0" encoding="UTF-8"?><svg id="Layer_1" xmlns="http://www.w3.org/2000/svg" viewBox="0 0 521.8 521.8"><defs><style>.cls-1{fill:#fff;}</style></defs><path class="cls-1" d="M178.22,167.43c11.22,15.76,136.26,187.56,138.3,190.43h33.48c-28.69-40.29-128.22-177.34-137.55-190.43h-34.23Z"/><path class="cls-1" d="M262.3,36.22c-125.05,0-226.43,101.38-226.43,226.43s101.38,226.43,226.43,226.43,226.43-101.38,226.43-226.43S387.35,36.22,262.3,36.22Zm39.73,347.32c-20.95-30.27-51.32-69.73-61.07-83.75-21.24,22.21-62.15,65-80.08,83.75l-35.65,.02c12.41-13.28,93.41-97.51,101.35-105.99-10.72-15.06-88.22-123.91-96.71-135.84h95.16c1.05,1.57,49.28,68.86,56.22,78.67,14.43-15.09,70.55-73.78,75.22-78.67,.06,0,32.79,0,35.62,0-31.65,33.1-68.37,71.5-97.22,101.67,18.99,26.68,90.08,119.89,104.49,140.13-7.06,0-94.06,0-97.33,0Z"/></svg>